<mxfile host="app.diagrams.net" modified="2023-08-15T12:07:18.093Z" agent="Mozilla/5.0 (Windows NT 10.0; Win64; x64) AppleWebKit/537.36 (KHTML, like Gecko) Chrome/114.0.0.0 Safari/537.36" version="21.6.8" etag="uf5pqor1LAGYgrFbs8hg" type="github">
  <diagram name="페이지-1" id="gpErHmfUXfsR23fGtQNZ">
    <mxGraphModel>
      <root>
        <mxCell id="0" />
        <mxCell id="1" parent="0" />
      </root>
    </mxGraphModel>
  </diagram>
</mxfile>
